<svg id="图层_1" data-name="图层 1" xmlns="http://www.w3.org/2000/svg"
    xmlns:xlink="http://www.w3.org/1999/xlink" viewBox="0 0 1024 1024">
    <defs>
        <style>
            .cls-1{fill:#fff;}.cls-2{fill:url(#未命名的渐变_5);}.cls-3{fill:url(#未命名的渐变_5-2);}.cls-4{fill:url(#未命名的渐变_5-3);}.cls-5{fill:url(#未命名的渐变_5-4);}.cls-6{fill:url(#未命名的渐变_5-5);}.cls-7{fill:url(#未命名的渐变_5-6);}.cls-8{fill:url(#未命名的渐变_5-7);}.cls-9{fill:url(#未命名的渐变_5-8);}.cls-10{fill:url(#新建渐变色板_1);}
        </style>
        <linearGradient id="未命名的渐变_5" x1="324.28" y1="826.48" x2="239.68" y2="645.07"
            gradientUnits="userSpaceOnUse">
            <stop offset="0" stop-color="#7e50fe" />
            <stop offset="0.52" stop-color="#fb10ea" />
            <stop offset="1" stop-color="#f54351" />
        </linearGradient>
        <linearGradient id="未命名的渐变_5-2" x1="375.48" y1="702.16" x2="333.45" y2="612.01"
            xlink:href="#未命名的渐变_5" />
        <linearGradient id="未命名的渐变_5-3" x1="434.24" y1="637.58" x2="403.96" y2="572.64"
            xlink:href="#未命名的渐变_5" />
        <linearGradient id="未命名的渐变_5-4" x1="491.66" y1="580.17" x2="461.37" y2="515.22"
            xlink:href="#未命名的渐变_5" />
        <linearGradient id="未命名的渐变_5-5" x1="549.07" y1="522.75" x2="518.79" y2="457.8"
            xlink:href="#未命名的渐变_5" />
        <linearGradient id="未命名的渐变_5-6" x1="609.24" y1="471.13" x2="575.41" y2="398.58"
            xlink:href="#未命名的渐变_5" />
        <linearGradient id="未命名的渐变_5-7" x1="679.57" y1="436.02" x2="633.07" y2="336.29"
            xlink:href="#未命名的渐变_5" />
        <linearGradient id="未命名的渐变_5-8" x1="778.53" y1="383.7" x2="693.27" y2="200.87"
            xlink:href="#未命名的渐变_5" />
        <linearGradient id="新建渐变色板_1" x1="194.86" y1="512" x2="829.14" y2="512"
            xlink:href="#未命名的渐变_5" />
    </defs>
    <title>画板 1</title>
    <rect class="cls-1" x="0.4" y="-0.2" width="1024" height="1024" rx="180" />
    <path class="cls-2"
        d="M387.5,758.8q-7.3,21.5-30.5,44.7-29.8,29.8-65.3,29.5t-65.2-30.1q-31.4-31.4-31.6-70.8t30.6-70.5q19.4-19.4,37.4-27.4l27.3,27.3c-14.2,3.6-26.9,11.2-38.3,22.5q-19.3,19.3-18.6,43.3t20.8,43.9q19.3,19.5,42.3,20.4c15.2.5,29.1-5.4,41.6-18a87.6,87.6,0,0,0,23.7-40.7Z" />
    <path class="cls-3"
        d="M408.5,663l-13.7,13.7-26.9-26.9c-7.2-7.2-13.5-8.2-18.8-2.9a11.7,11.7,0,0,0-3.5,9.6,16.5,16.5,0,0,0,5.2,10.4l26.9,26.9-13.8,13.7-69.8-69.8,13.8-13.8,29.7,29.8.2-.2q-2.9-13.7,6.3-22.8,16-16.1,35.5,3.3Z" />
    <path class="cls-4"
        d="M394.1,630.6c-7.7-7.8-11.5-16.2-11.3-25.3s4.3-17.5,12.1-25.4,15.8-11.4,24.6-11.5,17,3.5,24.3,10.9,11.6,16.1,11.6,25.3-3.9,17.7-11.7,25.5-16,11.5-24.9,11.7S401.7,638.1,394.1,630.6Zm13.8-14.1c9.4,9.4,18,10.2,25.7,2.6s6.2-15.9-3.5-25.6-17.5-10.1-25-2.7a14.8,14.8,0,0,0-4.7,12.2Q401.2,609.6,407.9,616.5Z" />
    <path class="cls-5"
        d="M451.6,573.2c-7.8-7.8-11.6-16.2-11.4-25.3s4.3-17.6,12.1-25.4S468.1,511.1,477,511s16.9,3.5,24.3,10.9,11.6,16.1,11.6,25.3-4,17.6-11.8,25.5-15.9,11.5-24.8,11.6S459.1,580.7,451.6,573.2ZM465.3,559c9.4,9.5,18,10.3,25.7,2.6s6.2-15.8-3.5-25.5S470,526,462.6,533.4c-3.6,3.6-5.2,7.7-4.7,12.1S460.8,554.5,465.3,559Z" />
    <path class="cls-6"
        d="M509,515.8c-7.8-7.8-11.6-16.2-11.4-25.3s4.3-17.6,12.1-25.4,15.8-11.5,24.7-11.6,16.9,3.6,24.3,10.9,11.6,16.2,11.6,25.4-3.9,17.6-11.8,25.4-15.9,11.6-24.8,11.7S516.5,523.3,509,515.8Zm13.8-14.2c9.4,9.4,17.9,10.3,25.6,2.6s6.2-15.8-3.5-25.5S527.4,468.6,520,476c-3.6,3.6-5.2,7.7-4.7,12.1S518.2,497.1,522.8,501.6Z" />
    <path class="cls-7"
        d="M637.4,434.1l-13.7,13.7-26.3-26.4c-7.6-7.6-14.2-8.7-19.7-3.2a11.7,11.7,0,0,0-3.4,9.6,16.6,16.6,0,0,0,5.1,10.4l27,26.9-13.8,13.8-47.2-47.2,13.8-13.8,7.5,7.5h.2c-2.4-9.2-.2-17.2,6.5-23.9,10.5-10.4,22.2-9.2,35.1,3.8Z" />
    <path class="cls-8"
        d="M689.6,371.5c8.7,8.7,13,18,12.7,27.7s-5,19.3-14.4,28.7c-6.4,6.3-12.4,10.5-17.9,12.4l-11.8-11.7A42,42,0,0,0,677.3,418c4.9-4.9,7.4-10.1,7.5-15.5s-2.1-10.4-6.7-15.1l-4-3.9-.2.2c2.1,8.7-.2,16.4-6.8,22.9s-12.8,8.6-20.6,7.9-15.2-4.5-22.4-11.6-12.3-16.3-13-24.9,2-16.2,8.4-22.6,12.4-7.9,19.8-6.3l.2-.2-5.6-5.7,13.7-13.7Zm-35-7.8a16.8,16.8,0,0,0-10.8-5.1,13.1,13.1,0,0,0-10.4,3.9,13.7,13.7,0,0,0-4,11.9c.7,4.6,3.4,9.3,8.2,14s8.3,6.5,12.5,7a13.9,13.9,0,0,0,15.1-15.2c-.5-4.4-2.6-8.5-6.5-12.4Z" />
    <path class="cls-9"
        d="M627.6,281.8q8.3-30.5,36.4-58.7,31.7-31.7,67.6-32.1t66.8,30.3c20.8,20.8,31.1,44.4,30.7,70.9s-11.4,50.6-33.3,72.5q-21.1,21.2-42.9,31L726.2,369q24.3-6.5,46.5-28.6c12.7-12.8,18.9-27.2,18.5-43.5s-7.4-31.1-21-44.7-28.2-21-43.1-21.6-28.4,5.3-40.8,17.6c-7.3,7.4-12.2,14.5-14.6,21.4l27.2,27.2,26.7-26.7,22.6,22.6-54.9,54.8Z" />
    <path class="cls-10"
        d="M387.5,758.8q-7.3,21.5-30.5,44.7-29.8,29.8-65.3,29.5t-65.2-30.1q-31.4-31.4-31.6-70.8t30.6-70.5q19.4-19.4,37.4-27.4l27.3,27.3c-14.2,3.6-26.9,11.2-38.3,22.5q-19.3,19.3-18.6,43.3t20.8,43.9q19.3,19.5,42.3,20.4c15.2.5,29.1-5.4,41.6-18a87.6,87.6,0,0,0,23.7-40.7Z" />
    <path class="cls-10"
        d="M408.5,663l-13.7,13.7-26.9-26.9c-7.2-7.2-13.5-8.2-18.8-2.9a11.7,11.7,0,0,0-3.5,9.6,16.5,16.5,0,0,0,5.2,10.4l26.9,26.9-13.8,13.7-69.8-69.8,13.8-13.8,29.7,29.8.2-.2q-2.9-13.7,6.3-22.8,16-16.1,35.5,3.3Z" />
    <path class="cls-10"
        d="M394.1,630.6c-7.7-7.8-11.5-16.2-11.3-25.3s4.3-17.5,12.1-25.4,15.8-11.4,24.6-11.5,17,3.5,24.3,10.9,11.6,16.1,11.6,25.3-3.9,17.7-11.7,25.5-16,11.5-24.9,11.7S401.7,638.1,394.1,630.6Zm13.8-14.1c9.4,9.4,18,10.2,25.7,2.6s6.2-15.9-3.5-25.6-17.5-10.1-25-2.7a14.8,14.8,0,0,0-4.7,12.2Q401.2,609.6,407.9,616.5Z" />
    <path class="cls-10"
        d="M451.6,573.2c-7.8-7.8-11.6-16.2-11.4-25.3s4.3-17.6,12.1-25.4S468.1,511.1,477,511s16.9,3.5,24.3,10.9,11.6,16.1,11.6,25.3-4,17.6-11.8,25.5-15.9,11.5-24.8,11.6S459.1,580.7,451.6,573.2ZM465.3,559c9.4,9.5,18,10.3,25.7,2.6s6.2-15.8-3.5-25.5S470,526,462.6,533.4c-3.6,3.6-5.2,7.7-4.7,12.1S460.8,554.5,465.3,559Z" />
    <path class="cls-10"
        d="M509,515.8c-7.8-7.8-11.6-16.2-11.4-25.3s4.3-17.6,12.1-25.4,15.8-11.5,24.7-11.6,16.9,3.6,24.3,10.9,11.6,16.2,11.6,25.4-3.9,17.6-11.8,25.4-15.9,11.6-24.8,11.7S516.5,523.3,509,515.8Zm13.8-14.2c9.4,9.4,17.9,10.3,25.6,2.6s6.2-15.8-3.5-25.5S527.4,468.6,520,476c-3.6,3.6-5.2,7.7-4.7,12.1S518.2,497.1,522.8,501.6Z" />
    <path class="cls-10"
        d="M637.4,434.1l-13.7,13.7-26.3-26.4c-7.6-7.6-14.2-8.7-19.7-3.2a11.7,11.7,0,0,0-3.4,9.6,16.6,16.6,0,0,0,5.1,10.4l27,26.9-13.8,13.8-47.2-47.2,13.8-13.8,7.5,7.5h.2c-2.4-9.2-.2-17.2,6.5-23.9,10.5-10.4,22.2-9.2,35.1,3.8Z" />
    <path class="cls-10"
        d="M689.6,371.5c8.7,8.7,13,18,12.7,27.7s-5,19.3-14.4,28.7c-6.4,6.3-12.4,10.5-17.9,12.4l-11.8-11.7A42,42,0,0,0,677.3,418c4.9-4.9,7.4-10.1,7.5-15.5s-2.1-10.4-6.7-15.1l-4-3.9-.2.2c2.1,8.7-.2,16.4-6.8,22.9s-12.8,8.6-20.6,7.9-15.2-4.5-22.4-11.6-12.3-16.3-13-24.9,2-16.2,8.4-22.6,12.4-7.9,19.8-6.3l.2-.2-5.6-5.7,13.7-13.7Zm-35-7.8a16.8,16.8,0,0,0-10.8-5.1,13.1,13.1,0,0,0-10.4,3.9,13.7,13.7,0,0,0-4,11.9c.7,4.6,3.4,9.3,8.2,14s8.3,6.5,12.5,7a13.9,13.9,0,0,0,15.1-15.2c-.5-4.4-2.6-8.5-6.5-12.4Z" />
    <path class="cls-10"
        d="M627.6,281.8q8.3-30.5,36.4-58.7,31.7-31.7,67.6-32.1t66.8,30.3c20.8,20.8,31.1,44.4,30.7,70.9s-11.4,50.6-33.3,72.5q-21.1,21.2-42.9,31L726.2,369q24.3-6.5,46.5-28.6c12.7-12.8,18.9-27.2,18.5-43.5s-7.4-31.1-21-44.7-28.2-21-43.1-21.6-28.4,5.3-40.8,17.6c-7.3,7.4-12.2,14.5-14.6,21.4l27.2,27.2,26.7-26.7,22.6,22.6-54.9,54.8Z" />
</svg>